<svg id="Слой_1" data-name="Слой 1" xmlns="http://www.w3.org/2000/svg" viewBox="0 0 1003.61 364.46">
    <defs>
        <style>.cls-1{fill:#e32c4d;}.cls-2,.cls-3{fill:#3bb7b4;}.cls-3{fill-rule:evenodd;}</style>
    </defs>
    <title>Diamed_Logo</title>
    <path class="cls-1"
          d="M242.73,285.48V181.69c0-10.87,6.77-15,16.2-15h33.64c44.92,0,72,24.82,72,66,0,41.44-27.89,67.28-72.81,67.28h-32C250.11,300,242.73,294.71,242.73,285.48ZM291.54,274c26.46,0,42.67-15,42.67-41,0-25.64-16.21-40.2-42.26-40.2H272.88V274Z"
          transform="translate(-38.2 -42.53)"/>
    <path class="cls-1"
          d="M486,165.9c9,0,13.54,1.64,13.54,10.87V290c0,9-4.51,10.87-13.54,10.87h-3.89C473.47,300.86,469,299,469,290V213.07L410.5,290.4c-7,9.23-8.61,10.46-16.82,10.46h-2.25c-8.21,0-12.51-1.85-12.51-10.87V176.77c0-9.23,4.3-10.87,12.51-10.87h4.71c8.62,0,13.13,1.84,13.13,10.87v76.91l58.46-77.32c7-9.23,8.61-10.46,16.82-10.46Z"
          transform="translate(-38.2 -42.53)"/>
    <path class="cls-1"
          d="M599.61,266H549.36l-9.23,24.2c-3.28,8.82-9.23,11.29-16.62,11.29-7.58,0-17-3.9-14.15-11.29l44.92-115.88c3.28-8.62,6-9,19.69-9,13.95,0,16.21.41,19.69,9l46,115.88c2.87,7.39-6.57,11.29-14.16,11.29-7.38,0-13.33-2.47-16.61-11.29Zm-7.79-22.56-18.26-48.82-18.25,48.82Z"
          transform="translate(-38.2 -42.53)"/>
    <path class="cls-1"
          d="M649.45,290V177.59c0-9.85,5.74-12.31,15.18-12.31H673c9.23,0,12.51,2.67,16,10.67l26.87,63.79L743.18,176c3.7-8.41,7.18-10.67,15.39-10.67h8c10.25,0,15.79,2.46,15.79,12.31V290c0,9-3.49,10.87-12.31,10.87h-4.71c-8,0-12.1-1.85-12.1-10.87V207.12L730.88,262.5c-3.28,8-3.49,8.82-15.18,8.82-11.28,0-11.49-1-15.18-9.64l-22.36-53.74V290c0,9-3.28,10.87-11.89,10.87h-4.72C652.94,300.86,649.45,299,649.45,290Z"
          transform="translate(-38.2 -42.53)"/>
    <path class="cls-1"
          d="M800.82,285.89v-105c0-10.67,6.15-14.15,16-14.15h76.5c9.44,0,13.33,1.84,12.31,9.84l-.82,6.77c-1,8.41-6.16,9.64-15.59,9.64H831.58v26.87h45.33c8.62,0,14.15,1,12.93,8.62l-1.24,7.38c-1.23,7.79-6.76,8.82-15.17,8.82H831.58v29.13H892.3c9.64,0,14.15,1.23,14.15,9.23v6.76c0,8.41-4.51,10.26-14.15,10.26H816.82C807,300,800.82,297,800.82,285.89Z"
          transform="translate(-38.2 -42.53)"/>
    <path class="cls-1"
          d="M919.78,285.48V181.69c0-10.87,6.77-15,16.2-15h33.64c44.92,0,72,24.82,72,66,0,41.44-27.89,67.28-72.81,67.28h-32C927.16,300,919.78,294.71,919.78,285.48ZM968.59,274c26.46,0,42.67-15,42.67-41,0-25.64-16.21-40.2-42.26-40.2H949.93V274Z"
          transform="translate(-38.2 -42.53)"/>
    <path class="cls-2"
          d="M256.55,339.06a20.17,20.17,0,0,1,9,2.08v5a14.44,14.44,0,0,0-8.14-2.35c-6.05,0-12.34,3.57-12.38,11.93,0,7.77,6.42,11.39,12.48,11.39a13.72,13.72,0,0,0,8.27-2.44v5.11a20.93,20.93,0,0,1-9.18,2.08c-8.18,0-16.86-5.34-16.81-16.14C239.79,344.48,248.24,339.06,256.55,339.06Z"
          transform="translate(-38.2 -42.53)"/>
    <path class="cls-2" d="M294.39,339.65v4.74H283.94v26.9h-5.15v-26.9H268.3v-4.74Z"
          transform="translate(-38.2 -42.53)"/>
    <path class="cls-2"
          d="M312.19,339.06c11.12,0,16.64,8,16.64,16.41s-5.52,16.41-16.64,16.41-16.63-8.05-16.63-16.41S301,339.06,312.19,339.06Zm0,4.84c-7.64,0-11.39,5.51-11.39,11.57S304.55,367,312.19,367s11.39-5.52,11.39-11.57S319.88,343.9,312.19,343.9Z"
          transform="translate(-38.2 -42.53)"/>
    <path class="cls-2"
          d="M367.83,339.65v31.64h-5.15V349.14l-10,15h-3.07l-10-15.06v22.2h-5.15V339.65h4.66l12,18.12,12-18.12Z"
          transform="translate(-38.2 -42.53)"/>
    <path class="cls-2"
          d="M371.94,371.29l13.38-31.64H391l13.33,31.64h-5.42l-2.8-6.83H380.21l-2.8,6.83Zm10-11.35h12.3l-5.56-13.51c-.18-.5-.36-1-.59-1.77-.22.77-.4,1.27-.58,1.77Z"
          transform="translate(-38.2 -42.53)"/>
    <path class="cls-2" d="M427.85,339.65v4.74H417.41v26.9h-5.15v-26.9H401.77v-4.74Z"
          transform="translate(-38.2 -42.53)"/>
    <path class="cls-2"
          d="M445.66,339.06c11.12,0,16.63,8,16.63,16.41s-5.51,16.41-16.63,16.41S429,363.83,429,355.47,434.49,339.06,445.66,339.06Zm0,4.84c-7.64,0-11.39,5.51-11.39,11.57S438,367,445.66,367s11.39-5.52,11.39-11.57S453.34,343.9,445.66,343.9Z"
          transform="translate(-38.2 -42.53)"/>
    <path class="cls-2"
          d="M493.34,339.65v31.64h-5.15v-26.9H477.7c-1.22,14-2.48,27.3-11,27.35a10.33,10.33,0,0,1-3.11-.54v-4.75a5.81,5.81,0,0,0,2.17.32c5.55-.18,6.14-14.47,7.14-27.12Z"
          transform="translate(-38.2 -42.53)"/>
    <path class="cls-2"
          d="M515.62,339.06c11.12,0,16.64,8,16.64,16.41s-5.52,16.41-16.64,16.41S499,363.83,499,355.47,504.46,339.06,515.62,339.06Zm0,4.84c-7.64,0-11.39,5.51-11.39,11.57S508,367,515.62,367,527,361.52,527,355.47,523.31,343.9,515.62,343.9Z"
          transform="translate(-38.2 -42.53)"/>
    <path class="cls-2" d="M537.9,371.29V339.65h21.43v4.74H543.06v26.9Z" transform="translate(-38.2 -42.53)"/>
    <path class="cls-2"
          d="M585.59,371.29V351.58c0-1.13,0-2.35,0-3.44l-17,23.15h-4.83V339.65h5.15v19.66c0,1.17,0,2.4,0,3.48l17-23.14h4.83v31.64Z"
          transform="translate(-38.2 -42.53)"/>
    <path class="cls-2"
          d="M595.57,371.29l9.09-11.89c-4.29-1.22-7.46-4.2-7.46-9.45,0-7.28,5.88-10.3,12.39-10.3h12.34v31.64h-5.15V360.08h-6.6l-8.5,11.21Zm13.93-15.78h7.28V344.35H609.5c-4,0-7,1.67-7,5.6S605.52,355.51,609.5,355.51Z"
          transform="translate(-38.2 -42.53)"/>
    <path class="cls-2"
          d="M637.43,378.48V366.59h3.79c4-7.33,5.07-17.63,5.07-26.94h20.38v26.94h4v11.89H666v-7.19H642.13v7.19Zm9.4-11.89h14.69v-22.2H651.35C650.85,352.26,649.81,360.85,646.83,366.59Z"
          transform="translate(-38.2 -42.53)"/>
    <path class="cls-2"
          d="M702.2,339.65v31.64H697v-26.9H686.56c-1.22,14-2.49,27.3-11,27.35a10.34,10.34,0,0,1-3.12-.54v-4.75a5.85,5.85,0,0,0,2.17.32c5.56-.18,6.15-14.47,7.14-27.12Z"
          transform="translate(-38.2 -42.53)"/>
    <path class="cls-2"
          d="M707,371.29l9.08-11.89c-4.29-1.22-7.45-4.2-7.45-9.45,0-7.28,5.87-10.3,12.38-10.3h12.34v31.64h-5.15V360.08h-6.6l-8.5,11.21ZM721,355.51h7.28V344.35H721c-4,0-7.05,1.67-7.05,5.6S717,355.51,721,355.51Z"
          transform="translate(-38.2 -42.53)"/>
    <path class="cls-2"
          d="M765.11,339.65c6.6,0,10.85,2.62,10.85,8a7,7,0,0,1-5,7c2.85.81,6.24,3,6.24,7.91,0,7.19-7,8.77-12,8.77H751.73V339.65Zm-.54,4.47h-7.69v8.63l8.41.05c3,0,5.42-1.27,5.42-4.34S768.36,344.12,764.57,344.12Zm.86,13h-8.55v9.63h7.82c3.53,0,7.28-.41,7.28-4.79C772,357.77,768.27,357.14,765.43,357.14Z"
          transform="translate(-38.2 -42.53)"/>
    <path class="cls-2"
          d="M797.79,339.06a20.16,20.16,0,0,1,9,2.08v5a14.41,14.41,0,0,0-8.13-2.35c-6.06,0-12.35,3.57-12.39,11.93,0,7.77,6.42,11.39,12.48,11.39a13.72,13.72,0,0,0,8.27-2.44v5.11a20.93,20.93,0,0,1-9.18,2.08c-8.18,0-16.86-5.34-16.81-16.14C781,344.48,789.47,339.06,797.79,339.06Z"
          transform="translate(-38.2 -42.53)"/>
    <path class="cls-2" d="M834.53,339.65v4.7H817.9V353h15.28v4.7H817.9v8.91h16.91v4.7H812.75V339.65Z"
          transform="translate(-38.2 -42.53)"/>
    <path class="cls-2"
          d="M862.55,371.29V351.58c0-1.13,0-2.35.05-3.44l-17,23.15h-4.84V339.65h5.15v19.66c0,1.17,0,2.4,0,3.48l17-23.14h4.84v31.64ZM860.84,335v-4.16a12.44,12.44,0,0,1-13.34,0V335a12.44,12.44,0,0,0,13.34,0Z"
          transform="translate(-38.2 -42.53)"/>
    <path class="cls-2"
          d="M900.88,339.06a20.24,20.24,0,0,1,9,2.08v5a14.46,14.46,0,0,0-8.14-2.35c-6.06,0-12.34,3.57-12.39,11.93,0,7.77,6.42,11.39,12.48,11.39a13.7,13.7,0,0,0,8.27-2.44v5.11a20.89,20.89,0,0,1-9.17,2.08c-8.18,0-16.86-5.34-16.82-16.14C884.11,344.48,892.56,339.06,900.88,339.06Z"
          transform="translate(-38.2 -42.53)"/>
    <path class="cls-2" d="M937.63,339.65v4.7H921V353h15.28v4.7H921v8.91H937.9v4.7H915.84V339.65Z"
          transform="translate(-38.2 -42.53)"/>
    <path class="cls-2"
          d="M977.18,339.65v31.64H972V349.14l-10,15H959l-10-15.06v22.2h-5.15V339.65h4.65l12,18.12,12-18.12Z"
          transform="translate(-38.2 -42.53)"/>
    <path class="cls-2"
          d="M984.86,371.29V339.65H990v10.84h6.14c7.51.05,13.52,2.36,13.52,10.4s-6,10.4-13.52,10.4Zm5.15-4.7h6.42c4.38,0,8-1.09,8-5.7s-3.67-5.69-8-5.69H990Z"
          transform="translate(-38.2 -42.53)"/>
    <path class="cls-2"
          d="M1036.65,371.29V351.58c0-1.13,0-2.35,0-3.44l-17.05,23.15h-4.83V339.65H1020v19.66c0,1.17,0,2.4,0,3.48l17-23.14h4.83v31.64Z"
          transform="translate(-38.2 -42.53)"/>
    <path class="cls-3"
          d="M152.2,404.81a2.51,2.51,0,0,0-1-2.43c-4.31-3.07-13.53-11-16-13.89-15.5-18.18-24.48-32.14-30.53-48.3C100.57,328,98,314.31,95.31,296.38c-1.48-10-3.19-20.33-3.85-30.29-1-14.54.43-30.68-1-44.48-1-9.72-2-15.09-3.6-20.39-1.6-8.65-3.79-13.48-8-24.7-2-5.51-4-11.53-5.75-17.69-.68-3-1.27-6.05-1.74-9-2.31-14.62,2.43-39.15,16-48.91a43.43,43.43,0,0,1,15.41-7.07c65.14-13.74,90.8,17.74,129.24,7.82h.56l2.57,0,0-.16,0-.16h0a.38.38,0,0,0,0-.13.62.62,0,0,0-.22-.26c-3.8-4.13-45.11-23.53-55.25-31.5-35-27.51-109.41-41.91-133.67,4.12-8.9,16.9-9,34.4-5.86,54.94a190.17,190.17,0,0,0,9,34.9c2.49,8.1,5.41,15.84,8.5,23.42,2.84,7,5.84,13.27,8.66,20.21,3.44,14.66,3.39,36.79,5.33,51,3.41,25,10.21,54.67,22,81.27,10.06,23.89,24.15,45.64,43.55,59.53l9.11,6.34c.58.38,1.3.9,2.05,1.39a2.5,2.5,0,0,0,3.81-1.69Z"
          transform="translate(-38.2 -42.53)"/>
    <path class="cls-3"
          d="M215.23,293.21c2.26-4.78,6-8,8.31-17.39,4.83-20,1.09-39.22-12.24-54.59L208,217.79c-5.2-3.76-8.55-6.73-16.15-9.24-21.68-7.12-39.77,4.82-50.63,22.3-6.64,10.67-10.9,22.39-14.2,36.83-3.78,16.52-4.19,29.2-4,46.93l.24,2.05.06,1.18.3,2.72.37,5a14.77,14.77,0,0,1,.78,3l.11,1.45a4.94,4.94,0,0,1,.25.72c.3,1.9.57,3.81.82,4.95.14.66.28,1.3.43,1.93.13.89.27,1.67.39,2.25a141.07,141.07,0,0,0,8.34,26.56,119.79,119.79,0,0,0,7.9,15.65c1.44,2.45,4.58,7.42,7.13,10.87a2.41,2.41,0,0,0,4.05-.32h0a2.34,2.34,0,0,0,.16-1.9c-.75-2.05-2.45-5-3.22-6.76-6.24-14.22-9.65-25.86-11.24-38.86a203,203,0,0,1-.66-22.41,156.17,156.17,0,0,1,1.89-17.25c11.42-50.77,33.92-56.07,42.69-51.61,14.62,7.43,24.06,22.85,28.35,38.11v.29c.22,2.15,1.41,2.23,2.42,1.66A2.56,2.56,0,0,0,215.23,293.21Z"
          transform="translate(-38.2 -42.53)"/>
    <path class="cls-3"
          d="M287.73,103.91c1.24.71,2.5,6.31,3.09,8.51a58.14,58.14,0,0,1,1.25,10.47,241.78,241.78,0,0,1-.39,29.83c9.95,1,62.1-78.64-1.65-104-30.92-12.31-60.94-5.48-88.09,14.2-6.07,4.41-6.88,7.93-5.17,6.7C213.61,57.52,282.15,77,287.73,103.91Z"
          transform="translate(-38.2 -42.53)"/>
</svg>
